<svg width="778" height="800" viewBox="0 0 778 800" fill="none" xmlns="http://www.w3.org/2000/svg">
<path d="M532.317 463.03L547.5 447.933L512.243 412.477L497.063 427.573L532.317 463.03ZM598.487 441.61L662.17 476.23L686.05 432.303L622.367 397.683L598.487 441.61ZM674.43 545.037L627.077 592.12L662.33 627.577L709.683 580.493L674.43 545.037ZM598.223 607.28C549.893 611.783 424.853 607.77 289.473 473.157L254.218 508.613C401.953 655.51 542.563 662.683 602.863 657.063L598.223 607.28ZM289.473 473.157C160.427 344.843 139.05 236.922 136.389 190.102L86.4701 192.939C89.8187 251.866 116.288 371.467 254.218 508.613L289.473 473.157ZM335.317 267.147L344.877 257.641L309.623 222.185L300.063 231.691L335.317 267.147ZM352.487 136.467L310.455 80.3203L270.429 110.285L312.46 166.432L352.487 136.467ZM169.088 68.0997L116.768 120.123L152.022 155.579L204.342 103.556L169.088 68.0997ZM317.69 249.419C300.063 231.691 300.039 231.715 300.015 231.739C300.007 231.747 299.983 231.771 299.967 231.787C299.934 231.82 299.901 231.854 299.867 231.888C299.799 231.957 299.729 232.029 299.657 232.103C299.513 232.253 299.36 232.415 299.2 232.59C298.878 232.939 298.525 233.338 298.147 233.789C297.391 234.691 296.535 235.801 295.635 237.129C293.831 239.792 291.865 243.313 290.196 247.741C286.792 256.776 284.967 268.687 287.255 283.435C291.73 312.278 311.593 350.377 362.477 400.97L397.73 365.513C350.113 318.166 338.77 289.353 336.663 275.77C335.66 269.305 336.7 266.124 336.987 265.37C337.16 264.904 337.243 264.857 337.03 265.175C336.923 265.331 336.747 265.574 336.47 265.903C336.333 266.067 336.17 266.253 335.98 266.46C335.883 266.564 335.783 266.673 335.67 266.787C335.617 266.845 335.56 266.903 335.5 266.963C335.47 266.993 335.44 267.023 335.41 267.054C335.397 267.069 335.373 267.093 335.363 267.1C335.34 267.124 335.317 267.147 317.69 249.419ZM362.477 400.97C413.377 451.58 451.653 471.277 480.543 475.71C495.307 477.973 507.21 476.167 516.24 472.803C520.667 471.153 524.193 469.21 526.86 467.423C528.193 466.53 529.307 465.68 530.21 464.93C530.663 464.557 531.063 464.207 531.413 463.887C531.59 463.727 531.753 463.577 531.903 463.433C531.98 463.36 532.05 463.29 532.12 463.223C532.153 463.19 532.187 463.157 532.22 463.123C532.237 463.107 532.263 463.083 532.27 463.077C532.293 463.053 532.317 463.03 514.69 445.3C497.063 427.573 497.087 427.55 497.11 427.527C497.117 427.52 497.14 427.497 497.157 427.48C497.187 427.45 497.217 427.42 497.247 427.39C497.31 427.333 497.367 427.277 497.423 427.22C497.54 427.11 497.65 427.01 497.753 426.913C497.96 426.727 498.147 426.563 498.313 426.43C498.64 426.157 498.883 425.983 499.033 425.88C499.343 425.673 499.28 425.767 498.787 425.95C497.97 426.253 494.7 427.297 488.127 426.287C474.35 424.177 445.333 412.843 397.73 365.513L362.477 400.97ZM310.455 80.3203C276.478 34.934 209.665 27.7523 169.088 68.0997L204.342 103.556C222.065 85.9333 253.541 87.727 270.429 110.285L310.455 80.3203ZM136.389 190.102C135.734 178.565 141.025 166.513 152.022 155.579L116.768 120.123C98.8571 137.932 84.7764 163.142 86.4701 192.939L136.389 190.102ZM627.077 592.12C617.917 601.23 608.097 606.36 598.223 607.28L602.863 657.063C627.35 654.78 647.413 642.41 662.33 627.577L627.077 592.12ZM344.877 257.641C377.693 225.01 380.133 173.397 352.487 136.467L312.46 166.432C325.91 184.398 323.91 207.979 309.623 222.185L344.877 257.641ZM662.17 476.23C689.43 491.05 693.677 525.897 674.43 545.037L709.683 580.493C754.36 536.07 740.583 461.947 686.05 432.303L662.17 476.23ZM547.5 447.933C560.3 435.207 580.903 432.053 598.487 441.61L622.367 397.683C586.247 378.047 541.42 383.47 512.243 412.477L547.5 447.933Z" fill="black"/>
</svg>
